<?xml version="1.0" encoding="UTF-8"?>
<svg id="Layer_1" data-name="Layer 1" xmlns="http://www.w3.org/2000/svg" xmlns:xlink="http://www.w3.org/1999/xlink" viewBox="0 0 115.006 36">
  <a xlink:href="50.5333333333333">
    <path id="logoMark" d="M12.9324,10.6559l2.1548,2.3721c.1837.202.5195.072.5195-.2009v-5.6797c0-.1649.1336-.2985.2983-.2985h3.9608c1.7374,0,3.347.9073,4.2378,2.3885l.7819,1.3003c.1057.1758.2959.2834.5011.2834h.0286c.323,0,.5848-.262.5848-.5853v-5.9073c0-.3231-.2617-.585-.5845-.585h-9.2119c-.3296,0-.5969-.2674-.5969-.5973V.448c0-.2474-.2004-.448-.4477-.448h-2.089c-.2472,0-.4477.2006-.4477.448v2.6982c0,.3299-.2672.5973-.5968.5973H.5846c-.3229,0-.5846.2619-.5846.585v1.3932c0,.1502.0577.2945.161.4033l12.8368,11.4744c.1066.1121.1603.2562.1609.4006-.0007.1443-.0543.2885-.1609.4006L.161,29.8749c-.1033.1089-.161.2532-.161.4033v1.3933c0,.3231.2617.5849.5846.5849h11.4408c.3297,0,.5969.2675.5969.5975v2.6981c0,.2474.2005.448.4477.448h2.089c.2473,0,.4476-.2005.4476-.448v-2.6982c0-.3299.2673-.5973.5969-.5973h9.2117c.3229,0,.5848-.262.5848-.5852v-5.9071c0-.3233-.2619-.5853-.5848-.5853h-.0286c-.2052,0-.3954.1076-.5012.2834l-.7818,1.3003c-.8909,1.4812-2.5005,2.3885-4.2379,2.3885h-3.9607c-.1648,0-.2984-.1338-.2984-.2986v-5.6796c0-.2729-.3357-.4029-.5194-.2009l-2.1548,2.3721c-.1998.22-.3106.5064-.3106.8037v2.705c0,.1649-.1335.2985-.2982.2985h-7.3439c-.0336,0-.0664-.0162-.0833-.0452-.0212-.0364-.016-.0789.0084-.1085l11.4435-10.7529c.0006-.0008.0013-.0015.0019-.0022.1148-.139.1148-.3461,0-.485-.0006-.0008-.0012-.0015-.0019-.0022L4.9048,7.0023c-.0244-.0296-.0296-.0721-.0084-.1085.0169-.029.0497-.0452.0833-.0452h7.3439c.1647,0,.2982.1337.2982.2985v2.705c0,.2973.1108.5837.3106.8037h0Z" style="fill: #f50; stroke-width: 0px;"/>
  </a>
  <g id="type">
    <a xlink:href="87.3294117647059">
      <path id="type_PathItem_" data-name="type &amp;lt;PathItem&amp;gt;" d="M105.311,19.5282v8.6824h-3.557v-14.8179h3.4v2.5179h.177c.347-.8297.9-1.4889,1.66-1.9777.767-.4888,1.713-.7332,2.84-.7332,1.042,0,1.949.2187,2.722.656.78.4374,1.382,1.0709,1.808,1.9005.433.8297.645,1.8362.639,3.0195v9.4349h-3.557v-8.8946c0-.9905-.262-1.7654-.786-2.325-.518-.5595-1.235-.8393-2.152-.8393-.623,0-1.176.1351-1.661.4052-.478.2637-.855.6464-1.13,1.148-.269.5017-.403,1.1094-.403,1.8233Z" style="fill: #231f20; stroke-width: 0px;"/>
    </a>
    <a xlink:href="87.3294117647059">
      <path id="type_PathItem_-2" data-name="type &amp;lt;PathItem&amp;gt;" d="M92.5814,28.5c-1.5133,0-2.8202-.3087-3.9207-.9261-1.094-.6239-1.9358-1.505-2.5254-2.6433-.5896-1.1448-.8843-2.4922-.8843-4.0421,0-1.5243.2947-2.862.8843-4.0132.5962-1.1577,1.4281-2.0581,2.4959-2.7012,1.0678-.6496,2.3223-.9744,3.7635-.9744.9302,0,1.808.148,2.6334.4438.832.2894,1.5657.7396,2.2011,1.3506.642.611,1.1465,1.3892,1.5133,2.3346.3669.939.5503,2.058.5503,3.3572v1.0708h-12.3714v-2.3539h8.9616c-.0065-.6689-.1539-1.2638-.4421-1.7847-.2883-.5274-.6912-.9422-1.2087-1.2445-.511-.3023-1.1071-.4534-1.7884-.4534-.7271,0-1.3658.1737-1.9161.521-.5503.3408-.9794.791-1.2873,1.3505-.3013.5531-.4552,1.1609-.4618,1.8233v2.0549c0,.8618.1605,1.6014.4815,2.2188.321.611.7697,1.0805,1.3462,1.4085.5765.3215,1.2512.4823,2.0242.4823.5175,0,.9859-.0707,1.4052-.2122.4192-.1479.7828-.3634,1.0907-.6464.3079-.2829.5405-.6335.6977-1.0515l3.3213.3666c-.2097.8618-.6093,1.6143-1.1988,2.2574-.5831.6367-1.3299,1.1319-2.2404,1.4857-.9106.3473-1.9522.5209-3.1248.5209Z" style="fill: #231f20; stroke-width: 0px;"/>
    </a>
    <path id="type_CompoundPathItem_" data-name="type &amp;lt;CompoundPathItem&amp;gt;" d="M74.6275,28.4714c-1.1857,0-2.247-.299-3.1838-.8972-.9367-.5981-1.677-1.4663-2.2207-2.6047-.5437-1.1383-.8156-2.5211-.8156-4.1482,0-1.6464.2752-3.0356.8254-4.1675.5568-1.1384,1.3069-1.997,2.2503-2.5758.9433-.5853,1.9947-.8779,3.1542-.8779.8844,0,1.6115.1479,2.1814.4438.57.2894,1.022.6399,1.3561,1.0515.3341.4052.5928.7878.7763,1.148h.1474v-7.3897h3.5669v19.7573h-3.4982v-2.3346h-.2161c-.1835.3601-.4488.7428-.796,1.148-.3472.3987-.8057.7396-1.3757,1.0226-.5699.2829-1.2872.4244-2.1519.4244ZM75.6199,25.6062c.7534,0,1.3954-.1993,1.926-.5981.5306-.4052.9335-.9679,1.2086-1.6882.2752-.7203.4127-1.5596.4127-2.5179s-.1375-1.7911-.4127-2.4986c-.2686-.7074-.6682-1.2573-1.1988-1.6496-.524-.3924-1.1693-.5885-1.9358-.5885-.7926,0-1.4543.2026-1.9849.6078-.5306.4051-.9302.9647-1.1988,1.6785-.2686.7139-.4029,1.5307-.4029,2.4504,0,.9261.1343,1.7526.4029,2.4793.2751.7203.678,1.2895,1.2086,1.7075.5372.4116,1.1956.6174,1.9751.6174Z" style="fill: #231f20; stroke-width: 0px;"/>
    <path id="type_CompoundPathItem_-2" data-name="type &amp;lt;CompoundPathItem&amp;gt;" d="M62.3637,28.2123v-14.8179h3.5571v14.8179h-3.5571ZM64.1521,11.2913c-.5634,0-1.0481-.1833-1.4543-.5499-.4061-.373-.6092-.82-.6092-1.3409,0-.5274.2031-.9743.6092-1.3409.4062-.373.8909-.5595,1.4543-.5595.5699,0,1.0547.1865,1.4543.5595.4062.3666.6092.8136.6092,1.3409,0,.521-.203.9679-.6092,1.3409-.3996.3666-.8844.5499-1.4543.5499Z" style="fill: #231f20; stroke-width: 0px;"/>
    <a xlink:href="87.3294117647059">
      <polygon id="type_PathItem_-3" data-name="type &amp;lt;PathItem&amp;gt;" points="38 8.4537 42.4612 8.4537 48.4356 22.77 48.6714 22.77 54.6458 8.4537 59.1069 8.4537 59.1069 28.211 55.6088 28.211 55.6088 14.6375 55.4221 14.6375 49.8604 28.1531 47.2466 28.1531 41.6849 14.6086 41.4982 14.6086 41.4982 28.211 38 28.211 38 8.4537" style="fill: #231f20; stroke-width: 0px;"/>
    </a>
  </g>
</svg>